<svg version="1.0" xmlns="http://www.w3.org/2000/svg" width="1188" height="1706.667" viewBox="0 0 891 1280"><path d="M286.5.9C275.4 3.6 266 15.7 266 27.3c0 2.3 2 15.2 4.5 28.7 35.4 191.7 54.4 357.8 61.6 537.5 2.3 55.2 1.1 199-1.7 226.8l-.6 5.7-6.2-6.1c-12.1-12.1-29.2-24.2-46.2-32.7-60.3-30.1-135.1-27.7-192.7 6.2C15.5 834.1-15.7 910.3 8 981.1c20.5 61.7 76.6 106.1 148.1 117.6 14.8 2.3 45.8 2.3 60.7 0 22.2-3.5 39.6-8.9 58.7-18.2 46.4-22.6 79.9-60.7 92-104.6 1.4-5.2 3-10.1 3.6-10.9 4.9-7.5 5.7-11.4 7.8-34.5 8.1-90.1 10.6-157.6 9.8-258.5-.7-90.8-3.8-153.5-11.7-244.5-5.3-59.8-14.4-138.8-22.6-194.8-1.3-9.3-2.4-17.3-2.4-17.8s13.4 8 29.8 18.9c111 74.1 191.4 118.4 280.4 154.7 40.8 16.7 88.6 32.7 129.7 43.4 8.4 2.2 15.5 4.2 15.8 4.5.9.8 8.2 55.3 11.7 86.6 4.8 42.8 7.5 73.1 11.1 125.5 6.6 96 5.6 216.2-2.6 303.5-2.9 31.6-8.8 75.2-10.3 76.7-.2.2-1.9-1.7-3.7-4.4-5.5-8.2-15.6-19.8-23.5-27.2-76.6-71.6-203.7-68.8-276 6.1-22.6 23.4-36.8 50.1-43.1 81.3-2.5 12.7-2.5 43.3 0 56 8.7 43 34.5 80.6 73.1 106.5 50.2 33.7 118 42.1 177.1 22 29.2-9.9 51.5-23.7 73-45.4 16.9-16.9 27.3-32.3 36-53.1 2.6-6 5.2-11.7 5.9-12.5 6.2-7 20.1-43.8 28-74 20.4-77.4 29.6-200.2 25.7-340-5.1-183.2-25.2-349.9-54.1-450-7.2-24.9-10.2-30.7-18.2-35.4-2.5-1.4-12.7-4.5-24.8-7.6-108.9-27.2-212.1-72.2-327-142.8-36.1-22.2-80.3-51.1-129.5-84.8-16.5-11.3-31.2-20.6-34-21.6-5.2-1.8-10.8-2.1-16-.9zm73.1 104.2C514.5 207.7 629.1 263 761.4 299c9.9 2.7 18.2 5.4 18.7 6.1 1.1 1.9 9.4 33.9 12.8 49.4 4.4 20.8 4.4 20.5 3.1 20.5-3.5 0-49.4-14.4-73.5-23-38.5-13.9-92.8-37.2-121-52-4.9-2.6-16.6-8.7-26-13.5-52.6-27.3-118.6-68.2-206.2-127.7-28.2-19.2-29.1-19.9-29.7-23.6-.3-2-2.2-13.3-4.1-25-1.9-11.7-3.5-21.8-3.5-22.3 0-1.3-2.4-2.7 27.6 17.2z"/></svg>